HIERARCHY
ROOT pelvis
{
  OFFSET 0 100 0
  CHANNELS 6 Xposition Yposition Zposition Zrotation Xrotation Yrotation
  JOINT pelvis_right_femur
  {
    OFFSET -10.78128 -3.44521 -0.5502486
    CHANNELS 3 Zrotation Xrotation Yrotation
    JOINT right_femur_tibia
    {
      OFFSET -0.8047443 -44.0398 -0.1307829
      CHANNELS 3 Zrotation Xrotation Yrotation
      JOINT right_tibia_foot
      {
        OFFSET 3.006224 -47.83518 -5
        CHANNELS 3 Zrotation Xrotation Yrotation
        End Site
        {
          OFFSET 0 -5 15
        }
      }
    }
  }
  JOINT pelvis_left_femur
  {
    OFFSET 10.78128 -3.44521 -0.5502486
    CHANNELS 3 Zrotation Xrotation Yrotation
    JOINT left_femur_tibia
    {
      OFFSET 0.8047443 -44.0398 -0.1307829
      CHANNELS 3 Zrotation Xrotation Yrotation
      JOINT left_tibia_foot
      {
        OFFSET -4.370144 -48.10324 -4.275266
        CHANNELS 3 Zrotation Xrotation Yrotation
        End Site
        {
          OFFSET 0 -5 15
        }
      }
    }
  }
  JOINT pelvis_spine1
  {
    OFFSET 0 6.468898 -3.129235
    CHANNELS 3 Zrotation Xrotation Yrotation
    JOINT spine1
    {
      OFFSET 0 23.15396 4.99043
      CHANNELS 3 Zrotation Xrotation Yrotation
      JOINT spine2
      {
        OFFSET 0 20.79997 -5.064912
        CHANNELS 3 Zrotation Xrotation Yrotation
        JOINT neck
        {
          OFFSET 0 14.38658 9.616178
          CHANNELS 3 Zrotation Xrotation Yrotation
          End Site
          {
            OFFSET 0 20 0
          }
        }
      }
      JOINT right_manubrium
      {
        OFFSET -5.722621 16.35077 3.967754
        CHANNELS 3 Zrotation Xrotation Yrotation
        JOINT right_clavicle
        {
          OFFSET -13.16364 1.694482 -4.693211
          CHANNELS 3 Zrotation Xrotation Yrotation
          JOINT right_humerus
          {
            OFFSET -28.5034 -0.3100689 -2.792744
            CHANNELS 3 Zrotation Xrotation Yrotation
            JOINT right_radius
            {
              OFFSET -25.15693 0.02248979 -1.271978
              CHANNELS 3 Zrotation Xrotation Yrotation
              End Site
              {
                OFFSET -15 0 0
              }
            }
          }
        }
      }
      JOINT left_manubrium
      {
        OFFSET 5.722621 16.35077 3.967754
        CHANNELS 3 Zrotation Xrotation Yrotation
        JOINT left_clavicle
        {
          OFFSET 13.16364 1.694482 -4.693211
          CHANNELS 3 Zrotation Xrotation Yrotation
          JOINT left_humerus
          {
            OFFSET 29.39168 -1.063119 -2.237045
            CHANNELS 3 Zrotation Xrotation Yrotation
            JOINT left_radius
            {
              OFFSET 24.59957 -0.9528479 0.9047498
              CHANNELS 3 Zrotation Xrotation Yrotation
              End Site
              {
                OFFSET 15 -0 -0
              }
            }
          }
        }
      }
    }
  }
}
MOTION
Frames: 11
Frame Time: 0.0416666666667
1877.215 100.9536 2251.822 5.731071 -1.41985 70.91694 3.600361 17.38048 3.875988 -0 13.82827 -0 0.1801726 -16.27263 -0.6943894 1.816332 -26.8995 -2.525593 -0 21.28165 -0 -6.704421 -7.389772 19.60434 -0.6206698 0.9562518 8.305977 -0.987152 9.139872 -2.828458 1.570361 22.10133 5.47197 2.562767 -18.00484 6.453101 0.3672098 -21.89981 10.94186 80.35906 24.70962 -6.057071 -0 0 24.20248 -24.49211 10.4425 13.92711 5.45366 -15.83254 -2.021084 -94.41008 23.47005 25.77413 0 0 -10.7555 -1.138514 5.852248 14.78067
1883.942 99.97839 2253.157 5.366898 -0.993158 70.3701 2.484418 19.21071 3.865728 -0 17.57108 -0 0.7343161 -14.81389 -0.1562692 0.7343569 -26.97658 -3.505399 -0 18.47372 -0 -6.152923 -7.545646 19.47056 -1.112428 0.2524392 8.702783 -1.180026 8.927703 -2.637828 1.690183 21.87557 5.459155 2.61858 -18.27109 6.552544 0.1676213 -22.1263 10.58155 80.15263 24.35172 -5.5031 -0 0 24.9987 -24.88363 9.950508 14.28223 5.302433 -15.26063 -1.827212 -94.74178 23.46573 26.85397 0 0 -9.610148 -1.358056 5.61919 15.21207
1891.052 99.42929 2254.474 5.458103 -0.3777792 70.04579 1.17155 20.00255 4.2223 -0 23.62221 -0 1.224527 -11.48677 -0.1288188 -1.011678 -25.73023 -4.821318 -0 18.56308 -0 -5.314367 -7.956801 19.26753 -1.92315 -0.4663145 9.05563 -1.359446 9.056633 -2.578812 1.854482 21.65974 5.369185 2.732687 -18.45494 6.5642 0.3114226 -22.04803 10.36959 80.50003 24.1872 -5.720678 -0 0 25.05464 -25.01269 9.689703 14.37553 5.030032 -14.89402 -1.792574 -94.75286 23.36616 27.47995 0 0 -8.821023 -1.470082 5.259457 15.52821
1898.377 99.47817 2255.771 5.931586 0.1988635 70.0843 0.05341392 19.19438 4.716731 -0 31.84177 -0 1.526099 -6.804558 -0.6857348 -2.886624 -23.13046 -6.02208 -0 20.11355 -0 -4.41441 -8.65289 18.97592 -2.809403 -1.005275 9.120456 -1.487305 9.490835 -2.748552 1.928392 21.47792 5.286805 2.876109 -18.53198 6.446673 0.7610708 -21.73857 10.36949 81.38053 24.17244 -6.662457 -0 0 24.45482 -24.81354 9.516303 14.19241 4.699746 -14.84507 -1.984611 -94.44705 23.23421 27.58699 0 0 -8.391014 -1.485874 4.739137 15.74307
1905.664 100.1514 2257.035 6.59166 0.5326665 70.5812 -0.5504423 16.39919 5.053662 -0 41.15608 -0 1.559034 -1.857558 -1.738644 -4.428278 -19.18479 -6.839094 -0 21.54786 -0 -3.68072 -9.604576 18.55925 -3.512955 -1.231876 8.701889 -1.500502 10.07235 -3.221047 1.827541 21.38243 5.293495 2.990589 -18.50207 6.246366 1.376056 -21.22955 10.53529 82.7029 24.28501 -8.208248 -0 0 23.27429 -24.25486 9.31926 13.76449 4.38822 -15.17509 -2.388682 -93.765 23.20873 26.96996 0 0 -8.409296 -1.397181 4.16936 15.82067
1912.657 101.3047 2258.24 7.218669 0.5378417 71.52873 -0.5770672 11.64843 5.064448 -0 49.6859 -0 1.292085 2.056326 -3.071203 -5.417522 -14.08794 -7.280709 -0 21.8028 -0 -3.242013 -10.76436 17.99816 -3.862146 -1.130163 7.771598 -1.349084 10.58878 -3.994291 1.564562 21.42261 5.422699 3.012475 -18.38168 6.076193 1.950557 -20.53853 10.7386 84.31172 24.49723 -10.17899 -0 0 21.63117 -23.38657 9.089501 13.17492 4.167487 -15.86336 -2.916337 -92.64025 23.43534 25.41498 0 0 -9.056482 -1.21329 3.751449 15.72825
1919.18 102.658 2259.357 7.648448 0.2684498 72.80491 -0.2218342 5.420517 4.761203 -0 55.39312 -0 0.7419803 3.975096 -4.42921 -5.874536 -8.279963 -7.544262 -0 20.60149 -0 -3.117955 -12.10715 17.30071 -3.823733 -0.7944982 6.491799 -1.035157 10.86368 -4.972698 1.234513 21.6044 5.652634 2.913881 -18.19599 6.050571 2.301505 -19.70512 10.84314 86.00853 24.76616 -12.36723 -0 0 19.72863 -22.34386 8.918279 12.52413 4.099244 -16.81851 -3.454254 -91.08242 23.98229 22.87832 0 0 -10.5077 -0.9855672 3.670845 15.49349
1925.181 103.8798 2260.38 7.796769 -0.1260754 74.21986 0.2227671 -1.540401 4.24269 -0 56.861 -0 -0.006037985 3.67417 -5.618607 -5.945607 -2.358321 -7.841991 -0 18.31308 -0 -3.266067 -13.64385 16.50027 -3.495782 -0.3657833 5.137428 -0.6193578 10.8215 -5.998801 0.9600295 21.8749 5.92809 2.728805 -17.97383 6.222149 2.352561 -18.7955 10.77458 87.59107 25.05932 -14.57601 -0 0 17.81843 -21.30339 8.937816 11.8838 4.233108 -17.92028 -3.915541 -89.215 24.79976 19.56748 0 0 -12.80525 -0.7874923 4.012534 15.2021
1930.729 104.6803 2261.335 7.642331 -0.4712193 75.58677 0.5254386 -8.477221 3.599598 -0 53.74923 -0 -0.7989377 1.698447 -6.549583 -5.800084 3.101651 -8.27459 -0 15.60953 -0 -3.623668 -15.39346 15.64884 -3.05318 0.03691652 3.976225 -0.1889662 10.49834 -6.915328 0.8363133 22.14096 6.187303 2.540388 -17.74749 6.559613 2.156053 -17.87985 10.54265 88.90465 25.3834 -16.65528 -0 0 16.10645 -20.41967 9.24704 11.27694 4.597648 -19.06127 -4.26036 -87.24327 25.74214 15.88052 0 0 -15.79731 -0.6643182 4.736969 14.93721
1935.98 104.8776 2262.272 7.204393 -0.6278702 76.77867 0.584387 -14.79478 2.894847 -0 46.7797 -0 -1.467802 -0.9405477 -7.211061 -5.583419 7.71249 -8.805082 -0 13.15774 -0 -4.121597 -17.32704 14.80615 -2.675939 0.343535 3.173332 0.1856088 10.00408 -7.619632 0.9008456 22.30777 6.379375 2.437371 -17.55408 6.970191 1.849144 -17.00805 10.21645 89.88272 25.78103 -18.5216 -0 0 14.66915 -19.77354 9.86124 10.69127 5.184155 -20.16459 -4.484404 -85.38207 26.62204 12.26244 0 0 -19.17044 -0.5922429 5.708847 14.7126
1941.134 104.4265 2263.248 6.534271 -0.530681 77.75329 0.4294557 -20.10028 2.188963 -0 37.42145 -0 -1.893969 -3.200777 -7.631965 -5.398957 11.35337 -9.308152 -0 11.46061 -0 -4.689471 -19.30991 14.02491 -2.488099 0.5200306 2.751579 0.4770908 9.464815 -8.084544 1.129543 22.31755 6.471801 2.466683 -17.43406 7.345038 1.582903 -16.19819 9.882229 90.55581 26.29338 -20.15259 -0 0 13.43016 -19.35094 10.70009 10.1056 5.931353 -21.17339 -4.595514 -83.78941 27.26335 9.067716 0 0 -22.5327 -0.4786528 6.750068 14.45253
